# xmcd
#
# Track frame offsets: 
#        150
#        23769
#        49751
#        79733
#        97420
#        131903
#        151066
#        168208
#        216707
#        238183
#        265522
#        286722
#        306492
#
# Disc length: 4590 seconds
#
# Revision: 0
# Processed by: cddbd v1.5.1PL0 Copyright (c) Steve Scherf et al.
# Submitted via: ExactAudioCopy v0.95a5
#
DISCID=b711ec0d
DTITLE=Mark Hummel - Blowin' My Horn
DYEAR=2004
DGENRE=Blues
TTITLE0=Rockin' All The Time
TTITLE1=My Back Scratcher
TTITLE2=100 Years
TTITLE3=I'm Wise
TTITLE4=Everything
TTITLE5=Lost A Good Man
TTITLE6=Before The Beginning
TTITLE7=Willie And the Hand Jive
TTITLE8=Bombshell Baby
TTITLE9=Rotten Kid
TTITLE10=What You Do
TTITLE11=Gotta Make A Change
TTITLE12=The Creeper
EXTD=
EXTT0=
EXTT1=
EXTT2=
EXTT3=
EXTT4=
EXTT5=
EXTT6=
EXTT7=
EXTT8=
EXTT9=
EXTT10=
EXTT11=
EXTT12=
PLAYORDER=
